<?xml version="1.0" encoding="UTF-8" standalone="no"?>
<!DOCTYPE svg PUBLIC "-//W3C//DTD SVG 1.1//EN"
 "http://www.w3.org/Graphics/SVG/1.1/DTD/svg11.dtd">
<!-- Generated by graphviz version 15.0.0 (20260523.1842)
 -->
<!-- Title: G Pages: 1 -->
<svg width="265pt" height="260pt"
 viewBox="0.00 0.00 265.00 260.00" xmlns="http://www.w3.org/2000/svg" xmlns:xlink="http://www.w3.org/1999/xlink">
<g id="graph0" class="graph" transform="scale(1 1) rotate(0) translate(4 256)">
<title>G</title><style>.edge>path:hover{stroke-width:8}</style>
<polygon fill="white" stroke="none" points="-4,4 -4,-256 260.63,-256 260.63,4 -4,4"/>
<!-- flask -->
<g id="node1" class="node">
<title>flask</title><style>.edge>path:hover{stroke-width:8}</style>
<ellipse fill="#c04040" stroke="black" cx="27" cy="-162" rx="27" ry="18"/>
<text xml:space="preserve" text-anchor="middle" x="27" y="-158.12" font-family="Helvetica,sans-Serif" font-size="10.00" fill="#ffffff">flask</text>
</g>
<!-- src_flask_app -->
<g id="node4" class="node">
<title>src_flask_app</title><style>.edge>path:hover{stroke-width:8}</style>
<ellipse fill="#4646a4" stroke="black" cx="118" cy="-18" rx="44.08" ry="18"/>
<text xml:space="preserve" text-anchor="middle" x="118" y="-14.12" font-family="Helvetica,sans-Serif" font-size="10.00" fill="#ffffff">src.flask_app</text>
</g>
<!-- flask&#45;&gt;src_flask_app -->
<g id="edge1" class="edge">
<title>flask&#45;&gt;src_flask_app</title><style>.edge>path:hover{stroke-width:8}</style>
<path fill="none" stroke="black" d="M27.14,-143.56C28.05,-124.54 31.86,-93.9 46,-72 54.72,-58.49 68.17,-47.24 81.1,-38.62"/>
<polygon fill="#c04040" stroke="black" points="82.89,-41.63 89.51,-33.36 79.18,-35.7 82.89,-41.63"/>
</g>
<!-- psycopg -->
<g id="node2" class="node">
<title>psycopg</title><style>.edge>path:hover{stroke-width:8}</style>
<ellipse fill="#33cc33" stroke="black" cx="109" cy="-234" rx="31.21" ry="18"/>
<text xml:space="preserve" text-anchor="middle" x="109" y="-230.12" font-family="Helvetica,sans-Serif" font-size="10.00" fill="#000000">psycopg</text>
</g>
<!-- src_load_data -->
<g id="node5" class="node">
<title>src_load_data</title><style>.edge>path:hover{stroke-width:8}</style>
<ellipse fill="#4c4cb3" stroke="black" cx="99" cy="-90" rx="44.08" ry="18"/>
<text xml:space="preserve" text-anchor="middle" x="99" y="-86.12" font-family="Helvetica,sans-Serif" font-size="10.00" fill="#ffffff">src.load_data</text>
</g>
<!-- psycopg&#45;&gt;src_load_data -->
<g id="edge2" class="edge">
<title>psycopg&#45;&gt;src_load_data</title><style>.edge>path:hover{stroke-width:8}</style>
<path fill="none" stroke="black" d="M106.38,-215.66C104.83,-201.26 104.01,-180.41 109,-163"/>
<path fill="none" stroke="black" d="M109,-161C112.86,-147.54 111.29,-132.17 108.37,-119.28"/>
<polygon fill="#33cc33" stroke="black" points="111.78,-118.47 105.81,-109.71 105.02,-120.28 111.78,-118.47"/>
</g>
<!-- src_query_data -->
<g id="node6" class="node">
<title>src_query_data</title><style>.edge>path:hover{stroke-width:8}</style>
<ellipse fill="#3d3db8" stroke="black" cx="209" cy="-90" rx="47.63" ry="18"/>
<text xml:space="preserve" text-anchor="middle" x="209" y="-86.12" font-family="Helvetica,sans-Serif" font-size="10.00" fill="#ffffff">src.query_data</text>
</g>
<!-- psycopg&#45;&gt;src_query_data -->
<g id="edge3" class="edge">
<title>psycopg&#45;&gt;src_query_data</title><style>.edge>path:hover{stroke-width:8}</style>
<path fill="none" stroke="black" d="M109,-161C116.35,-135.39 140.6,-118.05 163.38,-107.03"/>
<polygon fill="#33cc33" stroke="black" points="164.61,-110.32 172.3,-103.03 161.74,-103.93 164.61,-110.32"/>
</g>
<!-- psycopg_sql -->
<g id="node3" class="node">
<title>psycopg_sql</title><style>.edge>path:hover{stroke-width:8}</style>
<ellipse fill="#53b653" stroke="black" cx="209" cy="-234" rx="40.53" ry="18"/>
<text xml:space="preserve" text-anchor="middle" x="209" y="-230.12" font-family="Helvetica,sans-Serif" font-size="10.00" fill="#000000">psycopg.sql</text>
</g>
<!-- psycopg_sql&#45;&gt;src_query_data -->
<g id="edge4" class="edge">
<title>psycopg_sql&#45;&gt;src_query_data</title><style>.edge>path:hover{stroke-width:8}</style>
<path fill="none" stroke="black" d="M209,-215.59C209,-191.61 209,-148.14 209,-119.42"/>
<polygon fill="#53b653" stroke="black" points="212.5,-119.62 209,-109.62 205.5,-119.62 212.5,-119.62"/>
</g>
<!-- src_query_data&#45;&gt;src_flask_app -->
<g id="edge5" class="edge">
<title>src_query_data&#45;&gt;src_flask_app</title><style>.edge>path:hover{stroke-width:8}</style>
<path fill="none" stroke="black" d="M188.8,-73.46C176.55,-64.04 160.71,-51.85 147.12,-41.4"/>
<polygon fill="#3d3db8" stroke="black" points="149.4,-38.74 139.34,-35.41 145.13,-44.29 149.4,-38.74"/>
</g>
</g>
</svg>
